<?xml version="1.0" encoding="utf-8"?>
<!-- Generator: Adobe Illustrator 19.0.0, SVG Export Plug-In . SVG Version: 6.00 Build 0)  -->
<svg version="1.1" id="Layer_1" xmlns="http://www.w3.org/2000/svg" xmlns:xlink="http://www.w3.org/1999/xlink" x="0px" y="0px"
	 viewBox="-209 302.6 191.9 188.4" style="enable-background:new -209 302.6 191.9 188.4;" xml:space="preserve">
<style type="text/css">
	.st0{fill:#A7A9AC;stroke:#A7A9AC;stroke-miterlimit:10;}
	.st1{clip-path:url(#SVGID_2_);fill:#202421;}
	.st2{clip-path:url(#SVGID_4_);fill:#639DC9;stroke:#6EB8E5;stroke-width:1.4173;stroke-miterlimit:10;}
	.st3{clip-path:url(#SVGID_6_);fill:#4FC64F;stroke:#45A046;stroke-width:1.4173;stroke-miterlimit:10;}
	.st4{clip-path:url(#SVGID_8_);fill:#4FC64F;stroke:#45A046;stroke-width:1.4173;stroke-miterlimit:10;}
	.st5{clip-path:url(#SVGID_10_);fill:#4FC64F;stroke:#45A046;stroke-width:1.4173;stroke-miterlimit:10;}
	.st6{clip-path:url(#SVGID_12_);fill:#4FC64F;stroke:#45A046;stroke-width:1.4173;stroke-miterlimit:10;}
	.st7{clip-path:url(#SVGID_14_);fill:#4FC64F;stroke:#45A046;stroke-width:1.4173;stroke-miterlimit:10;}
	.st8{clip-path:url(#SVGID_16_);fill:#639DC9;stroke:#6EB8E5;stroke-width:1.4173;stroke-miterlimit:10;}
	.st9{clip-path:url(#SVGID_18_);fill:#202421;}
	.st10{clip-path:url(#SVGID_20_);fill:#202421;}
	.st11{clip-path:url(#SVGID_22_);fill:#202421;}
	.st12{clip-path:url(#SVGID_24_);fill:#202421;}
	.st13{clip-path:url(#SVGID_26_);fill:#202421;}
	.st14{clip-path:url(#SVGID_28_);fill:#202421;}
	.st15{clip-path:url(#SVGID_30_);fill:#202421;}
	.st16{clip-path:url(#SVGID_32_);fill:#202421;}
	.st17{clip-path:url(#SVGID_34_);fill:#202421;}
	.st18{clip-path:url(#SVGID_36_);fill:#202421;}
	.st19{clip-path:url(#SVGID_38_);fill:#202421;}
	.st20{clip-path:url(#SVGID_40_);fill:#202421;}
	.st21{clip-path:url(#SVGID_42_);fill:#202421;}
	.st22{clip-path:url(#SVGID_44_);fill:#202421;}
	.st23{clip-path:url(#SVGID_46_);fill:#202421;}
	.st24{clip-path:url(#SVGID_48_);fill:#202421;}
	.st25{clip-path:url(#SVGID_50_);fill:#202421;}
	.st26{clip-path:url(#SVGID_52_);fill:#202421;}
	.st27{clip-path:url(#SVGID_54_);fill:#202421;}
	.st28{clip-path:url(#SVGID_56_);fill:#202421;}
	.st29{clip-path:url(#SVGID_58_);fill:#4FC64F;stroke:#45A046;stroke-width:1.4173;stroke-miterlimit:10;}
	.st30{fill:#202421;stroke:#202421;stroke-width:1.4173;stroke-miterlimit:10;}
	.st31{fill:#202421;}
	.st32{fill:#A7A9AC;}
	.st33{fill:#BFC0C1;}
</style>
<path id="XMLID_102_" class="st0" d="M-102.7,470.3c-1.2,0.1-2.4,0.1-3.6,0.2c0-15.5,0-31,0.1-46.5c1.2,0,2.3,0,3.5,0
	c1.3,0.8,2.6,1.3,4.2,1.1c14.3-1.4,26.1-14.6,25-28.9c-0.6-7.4-2-14.8-10.1-18.3c-1.9-0.6-0.8-3.9-3.4-3.9
	c-4.6-3.8-9.9-4.6-15.6-3.8c-1.2,0-2.5,0-3.7-0.1c0-15.2,0.1-30.4,0.1-45.6c1.2-0.1,2.3-0.3,3.5-0.4c1.2,1.6,3,1.3,4.7,1.4
	c10.6,0.5,12.4,1.7,11.5,11.9c-0.7,7.5,4.2,8.3,8.7,10.8c4.9,2.7,6.2-1.7,8.8-3.7c1.2-0.9,2.1-2.1,3.1-3.2c3.3-3.6,6.7-3.3,9.9,0.1
	c4.9,5.3,10.5,9.9,14.7,15.9c0,0.5,0,0.9,0.1,1.4c-3.2,1.1-4.4,4.5-7.1,6.2c-6.5,4.2-3.7,9.1-1.8,14.4c1.8,5.1,5.8,3.2,9.1,3.5
	c1.3,0.1,2.6,0,3.8,0c5.1-0.2,7.5,2.3,7.5,7.3c0,5.1,0,10.3,0,15.4c-0.1,4.5-2.7,6.5-6.9,6.7c-1.9,0.1-3.9,0.5-5.7,0.1
	c-7-1.5-7.5,4-9.7,8.2c-2.4,4.5,1.2,6.1,3.3,8.5c1.1,1.3,2.4,2.4,3.6,3.7c3.3,3.3,3.5,6.6,0,10c-3.7,3.6-7.3,7.3-10.9,10.9
	c-3.4,3.4-6.6,3.3-9.9-0.3c-1.9-2.1-3.9-4-5.9-5.9c-1-1-1.8-2.2-3.8-1.9c-7.4,1.1-10.7,4.9-10.7,12.6c0,1.1,0,2.1,0,3.2
	c0.1,5.3-2.5,7.8-7.8,7.9C-97,469.1-100.2,467.8-102.7,470.3z M-102.3,357c23.6,2.7,39.2,15,39.9,39c0.8,25.7-15.8,38.1-41.7,41.4
	c11,3.9,27.3-3.2,35.7-14c11.6-15,11.9-34.5,1.5-50.3C-73.3,363.1-91.8,352.6-102.3,357z"/>
<g id="XMLID_2_">
	<g>
		<defs>
			<rect id="SVGID_1_" x="-197.8" y="296.6" width="87" height="202.9"/>
		</defs>
		<clipPath id="SVGID_2_">
			<use xlink:href="#SVGID_1_"  style="overflow:visible;"/>
		</clipPath>
		<path id="XMLID_194_" class="st1" d="M-197.8,394c-0.2-40.9,29.8-75.5,69.4-83.1c25.7-4.9,47.6,4.3,69.1,16
			c18.3,10,28.7,26.1,34.8,45.4c2.4,7.5,2.4,15,0.9,22.7c-2.7,13.7-5.1,27.4-8.2,41c-4.5,20.1-16.9,33.5-36.2,40.3
			c-23.6,8.3-47.9,11.8-71.6,2.1c-32.8-13.4-52.5-37.9-57.3-73.6C-197.5,400.6-197.9,396.5-197.8,394z M-135.4,414.9
			c3.5,0,7,0,10.5,0c9.2-0.1,13.9,6.1,11,15c-1.5,4.6-3.5,8.9-5.4,13.3c-0.9,2.2-1.5,4.3-0.7,6.7c2.6,7.7,4.2,15.7,5.6,23.7
			c0.3,1.9,1,3.2,3.5,3.3c11.7,0.5,23.2-0.5,34.5-4.1c4.4-1.4,4.5-3.4,2.4-6.8c-3.9-6.3-7-12.9-7.9-20.2c-1-8.4-5.3-12.6-13.4-14.7
			c-7.7-1.9-10.9-7.3-9.4-15.1c1.5-7.9,2-15.8,1.8-23.8c-0.1-3.3,1.1-4.6,4.3-4.3c7.3,0.5,14.6,0.9,21.9,1.3
			c5.8,0.3,11,2.2,15.4,6.1c1.2,1.1,2.7,1.8,4.6,1.5c7.8-1,15.5-1.9,23.3-2.7c2.6-0.3,4.1-1.1,3.6-3.9c-0.5-3-2.8-1.8-4.3-1.6
			c-5.7,0.8-10.9,0.7-15.3-3.8c-1.7-1.8-4-1.1-6.1-0.6c-2.9,0.7-5.6,0.3-6.8-2.6c-1.8-4.7-5.1-6.2-9.8-5.4c-3.8,0.6-4.9-1.4-5.1-4.8
			c-0.6-12.9,1-24.7,13.8-31.7c1-0.5,1.8-1.5,2.5-2.4c0.5-0.6,1.3-1.3,0.3-2c-4.5-3.1-8.9-6.3-14.2-8.2c-1.3-0.4-2.1,0.8-2.9,1.5
			c-9.5,8.4-20.5,10.8-32.5,7.2c-5.3-1.6-10.4-1.9-15.7-1.1c-4.5,0.7-9,0.8-13.1-1.7c-12.6-8-20-4.5-28,4.3
			c-4.8,5.2-4.6,5.7,1.5,9.3c8,4.8,16.9,7.5,25.6,10.8c3,1.1,4.6,2.9,5.3,5.9c1,4.1,1.3,8.2,0.9,12.4c-0.5,5.2-2.9,7.4-8,7.7
			c-3.5,0.2-7,0.1-10.5-0.1c-3.3-0.3-4.7,1.1-4.4,4.2c0.3,3.6-1.4,5.4-4.5,6.8c-8.2,3.8-8.1,3.9-3.9,12.1c0.6,1.2,1.3,2.3,1.8,3.5
			c1,2.7,3.1,3.6,5.8,4C-150.1,414.9-142.8,415.2-135.4,414.9z M-86.1,393c-3,0-5,0.2-7,0c-3.7-0.4-4.9,1-4.8,4.7
			c0.1,4.5-0.5,9-0.7,13.5c-0.5,13.3-0.5,13.7,12.6,17c5.3,1.3,7.4,4.2,8.4,9.1c1.9,9.3,4,18.5,8.2,27.1c1.7,3.4,3.5,4.3,7,2.7
			c8.5-4,14.3-10.8,18.9-18.6c7.7-12.9,9-27.6,11.8-42c1-5.2-1-5.7-5.2-5.4c-8,0.7-15.9,0.9-23.9,1.7c-3.1,0.3-5.8-0.3-7.6-2.6
			C-73.2,393.8-79.7,392.2-86.1,393z M-149.4,377.8c2.7-0.5,6,1.1,8.5-0.8c2.7-2,1.1-12.1-1.9-13.7c-9.4-5-18.9-9.8-28.2-14.9
			c-3-1.7-4.7-1.3-6.5,1.5c-10.2,16-15.9,33.2-13.3,52.4c1.3,9.8,2.2,10.9,11.6,12.4c3,0.5,7.3,2,9,0c1.8-2.1-1.5-5.3-2.6-8
			c-4.4-11-7.5-11.2,6.8-16.5c2.4-0.9,3.4-1.9,3.4-4.6c0-6.3,2.3-8.4,8.5-8.2C-152.6,377.5-151.1,377.7-149.4,377.8z M-125.8,441.5
			c2.1-4.6,4.4-8.9,5.9-13.4c1.7-5.4,0.3-6.9-5.3-7c-12-0.1-24.2,1.8-36.4-2.7c0.6,6.5,1.5,12.4,1.7,18.3c0.1,4.2,1.8,7.4,4.7,10
			c6.5,5.7,10.6,12.7,13.3,20.7c0.6,1.8,1.5,2.8,3.3,3.4c4.4,1.3,8.9,2.9,13.4,4c1.4,0.3,3.5,1.8,4.5,0.1c0.9-1.6-0.1-3.6-1-5.2
			c-0.7-1.1-1.8-1.9-2.9-2.7c-3.7-2.8-7.5-5.5-11.3-8.2c-1.6-1.1-2.7-2.5-1.4-4.1c1.2-1.3,2.2,0.5,3.2,1.2c3.8,2.4,6.8,5.9,11.3,8.1
			c-0.6-5.3-2.9-8.9-7-11.4c-2.8-1.7-5.5-3.8-8.2-5.7c-1.4-1-2.2-2.2-1.1-3.7c1.3-1.7,2.4-0.2,3.3,0.5c2.7,1.9,5.2,4,7.9,6.1
			c1.7-3.3,1.1-5.7-2-7.7c-2.5-1.6-4.8-3.6-7.1-5.5c-0.9-0.7-1.2-1.7-0.4-2.6c0.8-0.8,1.6,0,2.1,0.5
			C-132.3,436.5-129.3,438.8-125.8,441.5z M-70.7,360.6c0,2.2,0.1,4,0,5.8c-0.1,4,1.2,6.3,5.8,5.6c3.3-0.5,5.5,1.8,7.7,3.9
			c1.1,1,2.4,3,3.2,2.8c6.9-1.2,12,3.1,17.9,5.1c4.3,1.4,5.7,0.1,5.4-4.6c-0.2-2.3-0.5-4.6-1.1-6.9c-3.1-12-7-23.6-17.4-31.6
			c-3.4-2.6-6.5-4.9-9.5,0.6c-0.7,1.3-2.4,2.3-3.9,3C-69.4,348-72.1,353.5-70.7,360.6z M-81,322.4c-17-11-58.5-9.6-68.9,2.3
			c4.9,2.1,10.5,1.7,15.2,4.5c3.5,2,7.2,2.1,11.1,1.4c6.4-1.1,12.8-2.2,19.3-0.7C-95,332.1-86.9,330.7-81,322.4z M-152.1,464.6
			c-1.3-5.5-4-10.4-8.5-13.5c-6.1-4.3-6.9-10.1-7-16.5c0-2.3-0.2-4.7-0.2-7c0-2.2-1.1-4-3-4.8c-4.6-2.2-9.4-4.2-15.3-3.4
			C-179.4,438.2-168.7,453.5-152.1,464.6z"/>
	</g>
	<g>
		<defs>
			<rect id="SVGID_3_" x="-197.8" y="296.6" width="87" height="202.9"/>
		</defs>
		<clipPath id="SVGID_4_">
			<use xlink:href="#SVGID_3_"  style="overflow:visible;"/>
		</clipPath>
		<path id="XMLID_184_" class="st2" d="M-135.4,414.9c-7.3,0.3-14.6,0-21.9-1c-2.7-0.4-4.7-1.3-5.8-4c-0.5-1.2-1.2-2.3-1.8-3.5
			c-4.2-8.2-4.3-8.3,3.9-12.1c3.1-1.4,4.8-3.3,4.5-6.8c-0.3-3.1,1.2-4.5,4.4-4.2c3.5,0.3,7,0.3,10.5,0.1c5.1-0.2,7.5-2.5,8-7.7
			c0.4-4.2,0.1-8.3-0.9-12.4c-0.7-3-2.3-4.8-5.3-5.9c-8.7-3.3-17.6-6-25.6-10.8c-6.1-3.6-6.2-4.1-1.5-9.3c8-8.8,15.4-12.3,28-4.3
			c4,2.5,8.6,2.4,13.1,1.7c5.3-0.8,10.4-0.5,15.7,1.1c12,3.7,23,1.2,32.5-7.2c0.9-0.8,1.7-2,2.9-1.5c5.2,1.8,9.7,5,14.2,8.2
			c1,0.7,0.3,1.5-0.3,2c-0.8,0.8-1.6,1.8-2.5,2.4c-12.8,7-14.4,18.9-13.8,31.7c0.2,3.4,1.3,5.5,5.1,4.8c4.7-0.8,7.9,0.7,9.8,5.4
			c1.1,2.9,3.9,3.3,6.8,2.6c2.1-0.5,4.4-1.2,6.1,0.6c4.3,4.5,9.6,4.7,15.3,3.8c1.5-0.2,3.8-1.4,4.3,1.6c0.5,2.9-1,3.7-3.6,3.9
			c-7.8,0.8-15.5,1.7-23.3,2.7c-1.8,0.2-3.3-0.4-4.6-1.5c-4.4-4-9.6-5.8-15.4-6.1c-7.3-0.4-14.6-0.8-21.9-1.3
			c-3.3-0.2-4.4,1.1-4.3,4.3c0.2,8-0.3,15.9-1.8,23.8c-1.5,7.8,1.7,13.1,9.4,15.1c8.1,2,12.4,6.3,13.4,14.7c0.9,7.3,4,14,7.9,20.2
			c2.1,3.3,1.9,5.4-2.4,6.8c-11.3,3.6-22.7,4.6-34.5,4.1c-2.5-0.1-3.1-1.4-3.5-3.3c-1.4-8-3-16-5.6-23.7c-0.8-2.4-0.3-4.5,0.7-6.7
			c1.9-4.4,3.9-8.8,5.4-13.3c2.9-8.9-1.8-15-11-15C-128.4,414.9-131.9,414.9-135.4,414.9z M-149.4,340.4c0.3-1.6,1.7-3.8-1.4-3.5
			c-2.7,0.2-4.1,2.7-5.5,4.7s-0.2,3.4,1,4.9c4.4,5.5,10.4,8.1,17.3,8.7c3.3,0.3,5.8,1.2,6,5c0.1,2.1,1.5,3.2,3.1,4.1
			c7.5,4.2,15.4,7.6,23.5,10.6c2.1,0.8,3.7,0.3,4.9-1.9c2.5-4.5,4.9-9,6.9-13.8c2.4-6,0-11.1-6.2-13.3c-14.5-5.1-29.3-5.6-44.1-1.5
			C-147.9,345.6-149.4,344.2-149.4,340.4z M-138,390.9c-1.6,0.8-2.4,1.5-1.4,3.1c2.7,4,5.3,8.1,7.9,12c0.5,0.8,1.2,1.9,2.3,1.1
			c1-0.7,0.6-1.8,0-2.7c-2.4-4-4.8-7.9-7.3-11.9C-136.7,391.9-137.4,391.4-138,390.9z M-106.6,451.7c0.5,0.4,1.2,1.4,1.7,1.3
			c3-0.4,4.9,1.5,7.2,2.8c1.1,0.6,2.5,0.9,3.8,0.9s3.1-0.5,3-2c-0.1-2.2-1.8-1.2-3-0.9c-2.2,0.4-3.8-0.5-5.5-1.8
			c-1.5-1.2-3.1-2.6-5.3-2.2C-105.6,450-106.7,450-106.6,451.7z M-71.4,338c-0.6-0.3-1.1-0.9-1.7-1c-3.2-0.5-6.1,0.5-8.9,1.9
			c-0.9,0.5-0.4,1.4-0.1,2.2c0.8,1.8,2.3,1.2,3.4,0.7C-76.3,340.9-73.5,340.7-71.4,338z M-107,385.3c-2.9-1.2-4.7,0.2-6.5,1.8
			c-1.6,1.4-1.1,2.5-0.2,3.8c1.3,1.8,2.3,0.4,3.1-0.5C-109.2,389-107.7,387.7-107,385.3z M-126.9,399c-0.3-3.5-1.9-6.3-3.6-9.1
			c-0.7-1.2-1.7-1.7-2.8-0.9c-1.2,0.8-0.1,1.7,0.3,2.5C-131.3,394.3-129.6,397.1-126.9,399z M-82.8,372.9c-1-2.8-2.4-5.4-4.3-7.7
			c-0.6-0.7-1.8,0-1.9,0.8c-0.5,2.9,1.7,4.7,3.2,6.8c0.3,0.4,0.6,0.8,1,1.1C-83.7,374.6-83,374.3-82.8,372.9z M-86.8,378.5
			c0-3.5-2.6-5.2-4.3-7.4c-0.6-0.8-1.4-1.6-2.4-0.7c-0.9,0.8-0.7,1.9,0,2.6C-91.6,375.1-90,377.5-86.8,378.5z"/>
	</g>
	<g>
		<defs>
			<rect id="SVGID_5_" x="-197.8" y="296.6" width="87" height="202.9"/>
		</defs>
		<clipPath id="SVGID_6_">
			<use xlink:href="#SVGID_5_"  style="overflow:visible;"/>
		</clipPath>
		<path id="XMLID_176_" class="st3" d="M-86.1,393c6.4-0.8,12.8,0.8,17.7,7c1.8,2.4,4.5,2.9,7.6,2.6c8-0.7,15.9-1,23.9-1.7
			c4.2-0.4,6.2,0.1,5.2,5.4c-2.8,14.3-4.1,29.1-11.8,42c-4.7,7.8-10.5,14.6-18.9,18.6c-3.4,1.6-5.3,0.8-7-2.7
			c-4.3-8.6-6.3-17.8-8.2-27.1c-1-4.9-3.2-7.7-8.4-9.1c-13.1-3.3-13.2-3.7-12.6-17c0.2-4.5,0.8-9,0.7-13.5c-0.1-3.7,1.1-5.2,4.8-4.7
			C-91.1,393.2-89.1,393-86.1,393z M-49.2,440.6c0.4,0.3,0.9,0.6,1.2,0c0.1-0.1-0.4-0.5-0.5-0.7c-2.5-4-6.3-6.7-9.7-9.8
			c-0.9-0.8-1.9-1.7-3-0.6c-1.3,1.3,0.3,2.1,1.1,2.7C-56.5,435-52.8,437.8-49.2,440.6z M-42.2,427.4c-2.7-4.1-6.1-7.4-9.8-10.4
			c-0.6-0.5-1.2-1.3-2.1-0.4c-0.9,0.8-0.3,1.5,0.3,2.1C-50.2,422-46.9,425.6-42.2,427.4z M-45.9,435.1c-2.1-4.5-5.8-7.6-9.3-10.8
			c-0.6-0.6-1.4-1.7-2.4-0.7s0,1.8,0.6,2.5C-53.7,429.6-50.2,432.8-45.9,435.1z M-38.3,419.2c-2.7-4.2-5.9-7.9-10.7-9.7
			C-46.6,414-42.6,416.8-38.3,419.2z M-54.7,455.9c-2-4.2-5.5-7-9.1-9.7c-0.6-0.4-1.3-0.2-1.7,0.4s-0.2,1.3,0.3,1.8
			C-62,451.3-59.2,454.7-54.7,455.9z M-52.4,449.8c0.3-0.3,0.6-0.7,0.9-1c-2.3-3.4-5.5-5.9-8.7-8.4c-0.7-0.6-1.8-1.4-2.5-0.2
			c-0.7,1.1,0.5,1.8,1.2,2.4C-58.5,445.1-55.5,447.4-52.4,449.8z"/>
	</g>
	<g>
		<defs>
			<rect id="SVGID_7_" x="-197.8" y="296.6" width="87" height="202.9"/>
		</defs>
		<clipPath id="SVGID_8_">
			<use xlink:href="#SVGID_7_"  style="overflow:visible;"/>
		</clipPath>
		<path id="XMLID_173_" class="st4" d="M-149.4,377.8c-1.7-0.1-3.2-0.3-4.7-0.4c-6.2-0.2-8.5,1.9-8.5,8.2c0,2.7-1,3.7-3.4,4.6
			c-14.3,5.3-11.1,5.5-6.8,16.5c1.1,2.7,4.4,5.9,2.6,8c-1.8,2-6,0.5-9,0c-9.4-1.5-10.3-2.6-11.6-12.4c-2.6-19.3,3.2-36.4,13.3-52.4
			c1.8-2.8,3.5-3.2,6.5-1.5c9.3,5.2,18.8,10,28.2,14.9c3.1,1.6,4.7,11.7,1.9,13.7C-143.4,378.9-146.7,377.4-149.4,377.8z
			 M-179.4,373.2c0.6,0,1.3-0.7,1.5-2c0.7-3.6,2.6-6.7,4-10c0.5-1.2,1.9-2.6-0.2-3.8c-1.9-1-3.2,0.1-4.1,1.6
			c-2.3,3.7-3.2,7.9-4.4,12C-183.1,373-181.7,373.1-179.4,373.2z"/>
	</g>
	<g>
		<defs>
			<rect id="SVGID_9_" x="-197.8" y="296.6" width="87" height="202.9"/>
		</defs>
		<clipPath id="SVGID_10_">
			<use xlink:href="#SVGID_9_"  style="overflow:visible;"/>
		</clipPath>
		<path id="XMLID_170_" class="st5" d="M-125.8,441.5c-3.5-2.7-6.5-5-9.5-7.3c-0.6-0.4-1.4-1.3-2.1-0.5c-0.8,0.9-0.5,1.9,0.4,2.6
			c2.3,1.9,4.6,3.9,7.1,5.5c3.1,2,3.7,4.4,2,7.7c-2.7-2.1-5.3-4.1-7.9-6.1c-1-0.7-2.1-2.2-3.3-0.5c-1.1,1.6-0.3,2.8,1.1,3.7
			c2.7,1.9,5.3,4,8.2,5.7c4.1,2.5,6.4,6.1,7,11.4c-4.5-2.2-7.5-5.7-11.3-8.1c-1-0.6-2-2.5-3.2-1.2c-1.3,1.5-0.2,3,1.4,4.1
			c3.8,2.7,7.6,5.4,11.3,8.2c1.1,0.8,2.2,1.6,2.9,2.7c1,1.5,1.9,3.6,1,5.2c-1,1.7-3.1,0.3-4.5-0.1c-4.5-1.1-8.9-2.6-13.4-4
			c-1.7-0.5-2.6-1.6-3.3-3.4c-2.7-8-6.9-15.1-13.3-20.7c-2.9-2.6-4.6-5.8-4.7-10c-0.1-5.9-1.1-11.8-1.7-18.3
			c12.2,4.5,24.4,2.6,36.4,2.7c5.6,0.1,7,1.6,5.3,7C-121.4,432.7-123.8,436.9-125.8,441.5z M-124.9,433.7c0.6-4.1-3.2-5-5-7.3
			c-0.5-0.6-1.4-1-2.2-0.3c-1.1,0.9-0.5,1.8,0.2,2.5C-129.9,430.5-128,432.7-124.9,433.7z"/>
	</g>
	<g>
		<defs>
			<rect id="SVGID_11_" x="-197.8" y="296.6" width="87" height="202.9"/>
		</defs>
		<clipPath id="SVGID_12_">
			<use xlink:href="#SVGID_11_"  style="overflow:visible;"/>
		</clipPath>
		<path id="XMLID_165_" class="st6" d="M-70.7,360.6c-1.4-7.1,1.3-12.6,8-16.2c1.4-0.8,3.1-1.7,3.9-3c3-5.5,6.1-3.2,9.5-0.6
			c10.4,8,14.3,19.6,17.4,31.6c0.6,2.2,1,4.6,1.1,6.9c0.3,4.7-1.1,6-5.4,4.6c-5.9-2-11-6.3-17.9-5.1c-0.9,0.2-2.2-1.8-3.2-2.8
			c-2.2-2.1-4.4-4.4-7.7-3.9c-4.6,0.6-5.9-1.6-5.8-5.6C-70.6,364.6-70.7,362.8-70.7,360.6z M-34.7,378.6c-4.2-4.6-9.6-6.9-14.9-9.4
			c-0.7-0.3-1.6-0.8-2.1,0.3c-0.4,1-0.2,2,0.8,2.5C-45.7,374.7-40.6,377.6-34.7,378.6z M-35.9,371.4c-3.3-4.6-8.3-7-13.1-9.4
			c-0.9-0.4-1.5,0.2-1.8,1.2c-0.3,1.2,0.5,1.8,1.4,2.3C-45.2,368-40.9,370.4-35.9,371.4z M-41.3,359.3c0.2-0.4,0.5-0.9,0.7-1.3
			c-1.7-2.4-4.5-3.4-7.2-4.4c-0.8-0.3-1.6-0.5-2,0.6c-0.3,1,0.1,1.6,0.9,2C-46.3,357.3-43.8,358.3-41.3,359.3z"/>
	</g>
	<g>
		<defs>
			<rect id="SVGID_13_" x="-197.8" y="296.6" width="87" height="202.9"/>
		</defs>
		<clipPath id="SVGID_14_">
			<use xlink:href="#SVGID_13_"  style="overflow:visible;"/>
		</clipPath>
		<path id="XMLID_164_" class="st7" d="M-81,322.4c-5.9,8.3-13.9,9.7-23.2,7.5c-6.5-1.5-12.9-0.4-19.3,0.7
			c-3.9,0.6-7.6,0.6-11.1-1.4c-4.7-2.8-10.3-2.4-15.2-4.5C-139.5,312.7-98.1,311.4-81,322.4z"/>
	</g>
	<g>
		<defs>
			<rect id="SVGID_15_" x="-197.8" y="296.6" width="87" height="202.9"/>
		</defs>
		<clipPath id="SVGID_16_">
			<use xlink:href="#SVGID_15_"  style="overflow:visible;"/>
		</clipPath>
		<path id="XMLID_163_" class="st8" d="M-152.1,464.6c-16.6-11.1-27.4-26.4-33.8-45.3c5.9-0.8,10.6,1.2,15.3,3.4
			c1.9,0.9,3,2.6,3,4.8c0,2.3,0.2,4.7,0.2,7c0,6.5,0.9,12.3,7,16.5C-156.1,454.2-153.4,459.1-152.1,464.6z"/>
	</g>
	<g>
		<defs>
			<rect id="SVGID_17_" x="-197.8" y="296.6" width="87" height="202.9"/>
		</defs>
		<clipPath id="SVGID_18_">
			<use xlink:href="#SVGID_17_"  style="overflow:visible;"/>
		</clipPath>
		<path id="XMLID_160_" class="st9" d="M-149.4,340.4c0,3.8,1.4,5.2,5.5,4c14.8-4.1,29.5-3.6,44.1,1.5c6.2,2.2,8.6,7.3,6.2,13.3
			c-1.9,4.8-4.3,9.3-6.9,13.8c-1.2,2.2-2.8,2.7-4.9,1.9c-8.1-3-16-6.4-23.5-10.6c-1.6-0.9-3-2-3.1-4.1c-0.2-3.8-2.7-4.7-6-5
			c-6.9-0.6-12.8-3.2-17.3-8.7c-1.2-1.4-2.3-2.9-1-4.9c1.4-2,2.8-4.5,5.5-4.7C-147.7,336.7-149.1,338.8-149.4,340.4z M-142.1,347.7
			c3.8,2.7,7.8,3.1,11.4,4.4c1.8,0.7,4.5,0.8,4.9,2.9c1.3,6.6,6.9,7.8,11.8,9.9c10.2,4.3,10.6,3.9,14.2-6.7c1.5-4.5,0.4-6.9-4-8.2
			C-116.2,346.3-128.6,344.9-142.1,347.7z"/>
	</g>
	<g>
		<defs>
			<rect id="SVGID_19_" x="-197.8" y="296.6" width="87" height="202.9"/>
		</defs>
		<clipPath id="SVGID_20_">
			<use xlink:href="#SVGID_19_"  style="overflow:visible;"/>
		</clipPath>
		<path id="XMLID_159_" class="st10" d="M-138,390.9c0.6,0.5,1.3,1,1.7,1.6c2.5,3.9,4.9,7.9,7.3,11.9c0.5,0.9,0.9,2,0,2.7
			c-1.1,0.8-1.8-0.3-2.3-1.1c-2.7-4-5.3-8-7.9-12C-140.4,392.4-139.6,391.7-138,390.9z"/>
	</g>
	<g>
		<defs>
			<rect id="SVGID_21_" x="-197.8" y="296.6" width="87" height="202.9"/>
		</defs>
		<clipPath id="SVGID_22_">
			<use xlink:href="#SVGID_21_"  style="overflow:visible;"/>
		</clipPath>
		<path id="XMLID_158_" class="st11" d="M-106.6,451.7c-0.1-1.7,1-1.7,2-1.9c2.2-0.4,3.8,1,5.3,2.2c1.6,1.3,3.3,2.2,5.5,1.8
			c1.2-0.2,2.9-1.2,3,0.9c0,1.5-1.7,2-3,2s-2.7-0.3-3.8-0.9c-2.3-1.3-4.2-3.3-7.2-2.8C-105.4,453.1-106.1,452.1-106.6,451.7z"/>
	</g>
	<g>
		<defs>
			<rect id="SVGID_23_" x="-197.8" y="296.6" width="87" height="202.9"/>
		</defs>
		<clipPath id="SVGID_24_">
			<use xlink:href="#SVGID_23_"  style="overflow:visible;"/>
		</clipPath>
		<path id="XMLID_157_" class="st12" d="M-71.4,338c-2.2,2.7-5,2.8-7.3,3.9c-1.1,0.5-2.6,1-3.4-0.7c-0.3-0.7-0.8-1.7,0.1-2.2
			c2.8-1.4,5.7-2.4,8.9-1.9C-72.5,337.1-72,337.7-71.4,338z"/>
	</g>
	<g>
		<defs>
			<rect id="SVGID_25_" x="-197.8" y="296.6" width="87" height="202.9"/>
		</defs>
		<clipPath id="SVGID_26_">
			<use xlink:href="#SVGID_25_"  style="overflow:visible;"/>
		</clipPath>
		<path id="XMLID_156_" class="st13" d="M-111.2,382.5c1.5,0.4,3.3,10.8-0.1,9.4c-1.2-0.5-2,1.7-3.3-0.1c-1-1.3-0.5-3.3,1-4.7
			C-111.7,385.5-111.4,385.5-111.2,382.5z"/>
	</g>
	<g>
		<defs>
			<rect id="SVGID_27_" x="-197.8" y="296.6" width="87" height="202.9"/>
		</defs>
		<clipPath id="SVGID_28_">
			<use xlink:href="#SVGID_27_"  style="overflow:visible;"/>
		</clipPath>
		<path id="XMLID_155_" class="st14" d="M-126.9,399c-2.8-1.9-4.5-4.6-6.1-7.4c-0.4-0.8-1.5-1.6-0.3-2.5c1.1-0.8,2.1-0.3,2.8,0.9
			C-128.7,392.7-127.1,395.5-126.9,399z"/>
	</g>
	<g>
		<defs>
			<rect id="SVGID_29_" x="-197.8" y="296.6" width="87" height="202.9"/>
		</defs>
		<clipPath id="SVGID_30_">
			<use xlink:href="#SVGID_29_"  style="overflow:visible;"/>
		</clipPath>
		<path id="XMLID_154_" class="st15" d="M-82.8,372.9c-0.2,1.4-0.9,1.7-2,0.9c-0.4-0.3-0.7-0.7-1-1.1c-1.5-2-3.7-3.8-3.2-6.8
			c0.1-0.8,1.3-1.5,1.9-0.8C-85.2,367.5-83.7,370.1-82.8,372.9z"/>
	</g>
	<g>
		<defs>
			<rect id="SVGID_31_" x="-197.8" y="296.6" width="87" height="202.9"/>
		</defs>
		<clipPath id="SVGID_32_">
			<use xlink:href="#SVGID_31_"  style="overflow:visible;"/>
		</clipPath>
		<path id="XMLID_153_" class="st16" d="M-86.8,378.5c-3.2-1-4.7-3.4-6.6-5.4c-0.7-0.8-0.9-1.8,0-2.6c1-1,1.8-0.1,2.4,0.7
			C-89.4,373.3-86.8,375-86.8,378.5z"/>
	</g>
	<g>
		<defs>
			<rect id="SVGID_33_" x="-197.8" y="296.6" width="87" height="202.9"/>
		</defs>
		<clipPath id="SVGID_34_">
			<use xlink:href="#SVGID_33_"  style="overflow:visible;"/>
		</clipPath>
		<path id="XMLID_152_" class="st17" d="M-42.2,427.4c-4.7-1.8-8-5.4-11.6-8.8c-0.6-0.6-1.2-1.2-0.3-2.1c0.9-0.9,1.5-0.1,2.1,0.4
			C-48.2,420-44.8,423.3-42.2,427.4z"/>
	</g>
	<g>
		<defs>
			<rect id="SVGID_35_" x="-197.8" y="296.6" width="87" height="202.9"/>
		</defs>
		<clipPath id="SVGID_36_">
			<use xlink:href="#SVGID_35_"  style="overflow:visible;"/>
		</clipPath>
		<path id="XMLID_151_" class="st18" d="M-45.9,435.1c-4.3-2.3-7.8-5.5-11.1-8.9c-0.7-0.7-1.6-1.4-0.6-2.5c1.1-1.1,1.8,0.1,2.4,0.7
			C-51.7,427.6-48,430.6-45.9,435.1z"/>
	</g>
	<g>
		<defs>
			<rect id="SVGID_37_" x="-197.8" y="296.6" width="87" height="202.9"/>
		</defs>
		<clipPath id="SVGID_38_">
			<use xlink:href="#SVGID_37_"  style="overflow:visible;"/>
		</clipPath>
		<path id="XMLID_150_" class="st19" d="M-49.2,440.6c-3.6-2.8-7.3-5.6-10.9-8.5c-0.8-0.6-2.4-1.3-1.1-2.7c1-1.1,2.1-0.2,3,0.6
			c3.4,3.1,7.2,5.8,9.7,9.8C-48.8,440.1-49,440.3-49.2,440.6z"/>
	</g>
	<g>
		<defs>
			<rect id="SVGID_39_" x="-197.8" y="296.6" width="87" height="202.9"/>
		</defs>
		<clipPath id="SVGID_40_">
			<use xlink:href="#SVGID_39_"  style="overflow:visible;"/>
		</clipPath>
		<path id="XMLID_149_" class="st20" d="M-38.3,419.2c-4.4-2.4-8.3-5.1-10.7-9.7C-44.1,411.3-41,415-38.3,419.2z"/>
	</g>
	<g>
		<defs>
			<rect id="SVGID_41_" x="-197.8" y="296.6" width="87" height="202.9"/>
		</defs>
		<clipPath id="SVGID_42_">
			<use xlink:href="#SVGID_41_"  style="overflow:visible;"/>
		</clipPath>
		<path id="XMLID_148_" class="st21" d="M-54.7,455.9c-4.5-1.2-7.3-4.7-10.4-7.6c-0.5-0.5-0.7-1.2-0.3-1.8s1.2-0.8,1.7-0.4
			C-60.2,448.9-56.7,451.7-54.7,455.9z"/>
	</g>
	<g>
		<defs>
			<rect id="SVGID_43_" x="-197.8" y="296.6" width="87" height="202.9"/>
		</defs>
		<clipPath id="SVGID_44_">
			<use xlink:href="#SVGID_43_"  style="overflow:visible;"/>
		</clipPath>
		<path id="XMLID_147_" class="st22" d="M-52.4,449.8c-3.1-2.4-6.2-4.7-9.2-7.2c-0.7-0.6-1.8-1.3-1.2-2.4c0.7-1.2,1.8-0.4,2.5,0.2
			c3.2,2.5,6.4,5,8.7,8.4C-51.8,449.1-52.1,449.5-52.4,449.8z"/>
	</g>
	<g>
		<defs>
			<rect id="SVGID_45_" x="-197.8" y="296.6" width="87" height="202.9"/>
		</defs>
		<clipPath id="SVGID_46_">
			<use xlink:href="#SVGID_45_"  style="overflow:visible;"/>
		</clipPath>
		<path id="XMLID_146_" class="st23" d="M-48.5,439.8c0.2,0.2,0.6,0.6,0.5,0.7c-0.4,0.6-0.8,0.3-1.2,0
			C-49,440.3-48.8,440.1-48.5,439.8z"/>
	</g>
	<g>
		<defs>
			<rect id="SVGID_47_" x="-197.8" y="296.6" width="87" height="202.9"/>
		</defs>
		<clipPath id="SVGID_48_">
			<use xlink:href="#SVGID_47_"  style="overflow:visible;"/>
		</clipPath>
		<path id="XMLID_145_" class="st24" d="M-179.4,373.2c-2.3,0-3.6-0.2-3.1-2.2c1.2-4.1,2.1-8.3,4.4-12c0.9-1.5,2.2-2.6,4.1-1.6
			c2.1,1.1,0.7,2.5,0.2,3.8c-1.4,3.3-3.4,6.4-4,10C-178.1,372.5-178.9,373.2-179.4,373.2z"/>
	</g>
	<g>
		<defs>
			<rect id="SVGID_49_" x="-197.8" y="296.6" width="87" height="202.9"/>
		</defs>
		<clipPath id="SVGID_50_">
			<use xlink:href="#SVGID_49_"  style="overflow:visible;"/>
		</clipPath>
		<path id="XMLID_144_" class="st25" d="M-124.9,433.7c-3.1-0.9-5-3.1-7-5.1c-0.7-0.7-1.3-1.6-0.2-2.5c0.8-0.7,1.7-0.3,2.2,0.3
			C-128.2,428.6-124.3,429.6-124.9,433.7z"/>
	</g>
	<g>
		<defs>
			<rect id="SVGID_51_" x="-197.8" y="296.6" width="87" height="202.9"/>
		</defs>
		<clipPath id="SVGID_52_">
			<use xlink:href="#SVGID_51_"  style="overflow:visible;"/>
		</clipPath>
		<path id="XMLID_143_" class="st26" d="M-34.7,378.6c-5.9-1-10.9-3.9-16.1-6.6c-1-0.5-1.3-1.5-0.8-2.5c0.5-1.1,1.4-0.6,2.1-0.3
			C-44.3,371.7-38.9,374-34.7,378.6z"/>
	</g>
	<g>
		<defs>
			<rect id="SVGID_53_" x="-197.8" y="296.6" width="87" height="202.9"/>
		</defs>
		<clipPath id="SVGID_54_">
			<use xlink:href="#SVGID_53_"  style="overflow:visible;"/>
		</clipPath>
		<path id="XMLID_142_" class="st27" d="M-35.9,371.4c-5-1.1-9.2-3.5-13.5-5.9c-0.9-0.5-1.7-1.1-1.4-2.3c0.2-1,0.9-1.6,1.8-1.2
			C-44.2,364.5-39.2,366.8-35.9,371.4z"/>
	</g>
	<g>
		<defs>
			<rect id="SVGID_55_" x="-197.8" y="296.6" width="87" height="202.9"/>
		</defs>
		<clipPath id="SVGID_56_">
			<use xlink:href="#SVGID_55_"  style="overflow:visible;"/>
		</clipPath>
		<path id="XMLID_141_" class="st28" d="M-41.3,359.3c-2.5-1-5-2-7.5-3.1c-0.9-0.4-1.3-1-0.9-2c0.4-1.1,1.2-0.9,2-0.6
			c2.8,0.9,5.5,1.9,7.2,4.4C-40.8,358.4-41,358.9-41.3,359.3z"/>
	</g>
	<g>
		<defs>
			<rect id="SVGID_57_" x="-197.8" y="296.6" width="87" height="202.9"/>
		</defs>
		<clipPath id="SVGID_58_">
			<use xlink:href="#SVGID_57_"  style="overflow:visible;"/>
		</clipPath>
		<path id="XMLID_140_" class="st29" d="M-142.1,347.7c13.5-2.8,25.9-1.4,38.2,2.2c4.4,1.3,5.5,3.8,4,8.2c-3.6,10.7-4,11.1-14.2,6.7
			c-4.9-2.1-10.5-3.2-11.8-9.9c-0.4-2.2-3.1-2.3-4.9-2.9C-134.3,350.8-138.3,350.4-142.1,347.7z"/>
	</g>
</g>
<path id="XMLID_93_" class="st30" d="M-106.1,356.9c-4.1-0.3-3-2.7-1.2-2.8c16.8-0.6,34.9,10.6,40.5,19.1
	c10.4,15.8,10.1,35.3-1.5,50.3c-6.3,8.1-20.8,16.9-38,16.9c-3.7,0.2,0-2.4,0-3.4c32.1-4,43.4-20.3,44-40.9
	C-63.1,372-79.9,359-106.1,356.9z"/>
<path id="XMLID_5_" class="st30" d="M-27,389.2c-0.2-6.2-3-8.9-9.1-9.1c-2.1-0.1-4.3-0.3-6.4,0c-4.6,0.8-4.8-2.9-6.4-5.5
	c-1.7-2.9-0.7-4.5,1.4-6.5c1.3-1.3,2.8-2.4,4-3.7c5.7-4.9,5.7-9.8,0-14.5l0,0c-0.2-0.2-0.3-0.3-0.5-0.5c-2.6-2.2-4.9-4.8-7.3-7.2
	c-8.4-8.4-11-8.4-19.3,0c-2.5,2.5-4.3,4.3-8.6,2.5c-6.5-3.2-4.4-4.2-4.4-7.8c0-5.5-0.2-10.4-3.3-12.8c-4.2-3.2-12.5-2.7-20.2-1.9
	c1.2,1.6-2.3,4-0.6,3.7c7.4-1.4,14.6-1.6,18.2,0.3c3.6,2,3.5,6.1,3,11.3c-0.7,7.5,0.3,6.8,8.7,10.8c4.9,2.7,6.2-1.7,8.8-3.7
	c1.2-0.9,2.1-2.1,3.1-3.2c3.3-3.6,6.7-3.3,9.9,0.1c4.1,4.4,8.7,8.4,12.5,13c1.9,2.1,1.7,3.9,0,5.6c-1.7,1.5-4.8,4.8-4.8,4.8
	c-6.5,4.2-3.7,9.1-1.8,14.4c1.8,5.1,5.8,3.2,9.1,3.5c1.3,0.1,2.6,0,3.8,0c5.1-0.2,7.5,2.3,7.5,7.3c0,5.1,0,10.3,0,15.4
	c-0.1,4.5-2.7,6.5-6.9,6.7c-1.9,0.1-3.9,0.5-5.7,0.1c-7.6,0-7.5,4-9.7,8.2c-2.4,4.5,1.2,6.1,3.3,8.5c1.1,1.3,2.4,2.4,3.6,3.7
	c3.3,3.3,3.5,6.6,0,10c-3.7,3.6-7.3,7.3-10.9,10.9c-3.4,3.4-6.6,3.3-9.9-0.3c-1.9-2.1-3.9-4-5.9-5.9c-1-1-1.8-2.2-3.8-1.9
	c-4.5,0.7-8.9,2-10.6,4.8c-1.1,1.9-0.1,4.7-0.1,7.8c0,1.1,0,2.1,0,3.2c0.1,5.3-2.5,7.8-7.8,7.9c-2.9,0.1-8.9,0.3-14.1-0.5
	c0,0-0.7,5.5,3.3,4.7c4.6-1,21.7,4.6,21.2-14.6c-0.4-7.2,1-7.6,6.1-9.2c5.3-1.7,6.2,2.8,8.5,4.9c6.7,6,9.9,6.2,16.3-0.1
	c3.4-3.3,6.7-6.6,10-10c4.1-4.3,4-8.7,0-13.1c-1.4-1.6-2.9-3.2-4.5-4.5c-2.2-1.9-2.3-3.5-1.6-6.5c1.6-6.6,6.3-5,10.5-5.1
	c8.7-0.2,11.5-2.9,11.5-11.6C-27,398.6-26.9,393.9-27,389.2z"/>
<path id="XMLID_9_" class="st31" d="M-112.6,309.5c0,1.8-1.5,5.4,0.1,5.4c1.4,0,1.3,3.1,1.3,8.7c0.2,25.4-0.6,98-0.3,138.5
	c0,4.4,1.4,14.8-0.4,15c-2.2,0.2,0.7,4.9,0.8,7.1c0,0,6.2,0.3,6.2-2.1c0-17,0-34.2-0.5-51.2c-0.9-28.3-0.4-56.7-0.5-85.1
	c-0.1-11.3-0.4-22.7-0.3-34C-106.2,309.1-112.6,309.5-112.6,309.5z"/>
<path id="XMLID_4_" class="st30" d="M-73.6,396.2c-0.6-7.4-2.4-16.8-14.2-23.7c-6.1-3.1-11.2-3.6-18.6-3.3c0,0-11.5,3.2,4.6,2.8
	c9.3-0.1,16.7,5.1,21,10.1c10.5,12.3,3.1,35.8-17,39.8c-15.4,0.3-9.3,0.1-8.4,2.1c1.3,0.8-5.4,2,7.5,1.1
	C-84.3,423.6-72.5,410.4-73.6,396.2z"/>
<path class="st32" d="M-106.3,357.6c0,3.6,0,7.3,0,10.9c7.3-0.3,12.5,0.2,18.8,3.4c11.7,6.8,13.9,16.1,14.6,24.3l0,0
	c1.1,14.5-10.7,28.1-25.7,29.7c-3.3,0.2-5.3,0.3-6.5,0.3c-0.4,0-0.8,0-1,0c0,3.4,0,6.8,0,10.2c28-3.5,42.5-17,43.2-40.2
	c-0.8-22.6-16.1-36.3-43.1-38.5C-106.2,357.6-106.2,357.6-106.3,357.6z"/>
<path class="st32" d="M-105.2,433.6c0-2.2,0-4.3,0-6.5c0,0,0,0,0,0c1.3,0,3.3-0.1,6.6-0.3c15.6-1.6,27.8-15.7,26.7-30.7l0-0.1
	C-72.6,387.5-75,378-87,371c-5.9-3-10.6-3.6-16-3.6c-0.8,0-1.5,0-2.3,0c0-2.4,0-8.8,0-8.8c25.9,2.4,40.5,15.6,41.3,37.4
	c-0.7,22.3-14.5,35.4-41.2,39.1L-105.2,433.6z"/>
<path class="st33" d="M-30.4,390.1c0-2.3-0.6-4.1-1.7-5.1c-1.1-1.1-2.8-1.5-5.1-1.5c-0.4,0-0.8,0-1.2,0c-0.9,0-1.8,0-2.7,0
	c-0.7-0.1-1.5,0-2.3,0c-2.6,0.2-5.8,0.4-7.4-4c-0.2-0.5-0.4-1.1-0.6-1.6c-1.8-4.7-3.6-9.5,2.6-13.6c0.5-0.5,3.2-3.4,4.8-4.8
	c1.5-1.5,1.5-2.9-0.1-4.6c-2.3-2.8-5-5.4-7.5-7.9c-1.7-1.6-3.4-3.3-5-5.1c-1.5-1.6-3.1-2.5-4.5-2.5c0,0,0,0,0,0
	c-1.4,0-2.9,0.8-4.3,2.3c-0.2,0.3-0.5,0.5-0.7,0.8c-0.7,0.9-1.5,1.7-2.5,2.5c-0.6,0.5-1.1,1.1-1.7,1.8c-1.7,1.9-3.7,4.3-7.8,2
	c-1.1-0.5-2.1-1-2.9-1.4c-5.8-2.6-6.8-3.1-6.1-10.1c0.6-5.7,0.3-8.9-2.7-10.6c-0.6-0.3-1.3-0.6-2-0.8c-1.6-0.3-3.6-0.5-6-0.6
	c-2.5,0-5.2,0.3-8.3,0.8c0,9,0,18-0.1,27c16.8-0.1,34.6,11.1,40.1,19.4c10.8,16.4,10.2,36-1.5,51.1c-6.4,8.3-21.2,17.2-38.5,17.2
	c0,9,0,18.1,0,27.1c4.8,0.5,9.9,0.4,12.2,0.3c5-0.1,7.2-2.3,7.1-7.2v-3.2c0-1-0.1-1.9-0.2-2.9c-0.2-1.9-0.4-3.8,0.4-5.2
	c1.5-2.6,5.1-4.3,11.1-5.2c2.1-0.3,3.2,0.8,4,1.7c0.1,0.1,0.2,0.3,0.4,0.4c2,1.9,4,3.8,5.9,5.9c1.5,1.7,3,2.5,4.4,2.5
	c1.4,0,2.9-0.7,4.4-2.3c1.2-1.2,2.4-2.4,3.6-3.6c2.4-2.4,4.8-4.9,7.3-7.3c1.5-1.5,2.3-3,2.3-4.4c0-1.5-0.8-3-2.3-4.6
	c-0.5-0.6-1.1-1.1-1.6-1.6c-0.7-0.7-1.4-1.4-2.1-2.2c-0.4-0.5-0.9-0.9-1.4-1.3c-1.9-1.7-4.2-3.9-2-7.9c0.4-0.8,0.7-1.6,1.1-2.3
	c1.4-3.2,2.6-6.3,9.2-6.3c0,0,0,0,0,0l0.2,0c1.2,0.3,2.5,0.1,3.9,0c0.5,0,1.1-0.1,1.6-0.1c4.1-0.2,6.1-2.2,6.2-6L-30.4,390.1z"/>
<path class="st32" d="M-98.7,467.6c-2.4,0-4.6-0.1-6.6-0.3c0-8.4,0-16.8,0-25.2c17.2-0.3,31.9-9.3,38.3-17.6
	c12-15.5,12.6-35.5,1.6-52.3c-5.3-8-22.4-19.6-39.9-19.9l0-2.6c0-7.5,0-15,0-22.6c2.6-0.4,5.1-0.7,7.3-0.7c2.7,0.1,4.4,0.3,5.8,0.6
	c0.7,0.2,1.3,0.4,1.7,0.7c2.2,1.2,2.7,3.5,2.1,9.6c-0.7,7.5,0.6,8.3,6.7,11.1c0.9,0.4,1.9,0.9,2.9,1.4c1.2,0.7,2.4,1,3.6,1
	c2.6,0,4.3-1.9,5.5-3.3c0.5-0.6,1-1.2,1.6-1.6c1-0.8,1.8-1.7,2.6-2.6c0.2-0.3,0.5-0.5,0.7-0.8c1.2-1.3,2.4-2,3.6-2
	c1.2,0,2.5,0.7,3.8,2.1c1.6,1.7,3.3,3.4,5,5.1c2.6,2.5,5.2,5.1,7.4,7.9c1.4,1.5,1.1,2.3,0.1,3.2c-1.4,1.3-3.9,3.8-4.7,4.7
	c-6.8,4.5-4.6,10.1-2.9,14.7l0.1,0.1c0.2,0.5,0.4,1,0.5,1.5c1.5,4.2,4.5,4.7,6.7,4.7c0.6,0,1.1,0,1.7-0.1c0.5,0,1-0.1,1.5-0.1
	c0.2,0,0.5,0,0.7,0c0.5,0,1,0.1,1.4,0.1c0.5,0,0.9,0,1.3,0c0.4,0,0.8,0,1.2,0c0.2,0,0.4,0,0.5,0c1.8,0,3.1,0.4,3.9,1.2
	c0.9,0.9,1.4,2.4,1.4,4.4l0,15.4c-0.1,3.3-1.7,4.8-5.3,5c-0.5,0-1.1,0.1-1.6,0.1c-0.8,0.1-1.5,0.1-2.2,0.1l0,0c-0.5,0-1,0-1.4-0.1
	l-0.1,0l-0.2,0h-0.1c-7.3,0-8.8,3.6-10.2,6.9c-0.3,0.7-0.6,1.5-1,2.2c-2.5,4.7,0.3,7.4,2.2,9.1c0.5,0.4,0.9,0.9,1.3,1.3
	c0.7,0.8,1.4,1.5,2.1,2.2c0.5,0.5,1,1,1.5,1.6c1.4,1.4,2.1,2.7,2.1,3.9c0,1.2-0.7,2.4-2,3.7c-2.5,2.5-5.1,5-7.3,7.3
	c-1.2,1.2-2.4,2.4-3.6,3.6c-1.3,1.3-2.5,2-3.6,2l-0.1,0c-1.2,0-2.4-0.8-3.7-2.2c-1.9-2.1-4-4.1-6-6c-0.1-0.1-0.2-0.2-0.3-0.3
	c-0.8-0.9-2-2.1-4.1-2.1c-0.3,0-0.5,0-0.8,0.1c-6.3,0.9-10.1,2.8-11.8,5.7c-1,1.7-0.8,3.8-0.6,5.8c0.1,0.9,0.2,1.8,0.2,2.8v3.2
	c0.1,4.3-1.7,6.1-6.1,6.2C-95.2,467.5-96.8,467.6-98.7,467.6z"/>
</svg>
