<?xml version="1.0" encoding="utf-8"?>
<!-- Generator: Adobe Illustrator 19.0.0, SVG Export Plug-In . SVG Version: 6.00 Build 0)  -->
<svg version="1.1" id="Layer_1" xmlns="http://www.w3.org/2000/svg" xmlns:xlink="http://www.w3.org/1999/xlink" x="0px" y="0px"
	 viewBox="0 0 191.9 188.4" style="enable-background:new 0 0 191.9 188.4;" xml:space="preserve">
<style type="text/css">
	.st0{fill:#A7A9AC;}
	.st1{clip-path:url(#XMLID_33_);fill:#202421;}
	.st2{clip-path:url(#XMLID_33_);fill:#639DC9;}
	.st3{clip-path:url(#XMLID_33_);fill:#45A046;}
	.st4{fill:#202421;stroke:#202421;stroke-width:2.8346;stroke-miterlimit:10;}
	.st5{fill:#202421;}
</style>
<path id="XMLID_102_" class="st0" d="M106.3,167.7c-1.2,0.1-2.4,0.1-3.6,0.2c0-15.5,0-31,0.1-46.5c1.2,0,2.3,0,3.5,0
	c1.3,0.8,2.6,1.3,4.2,1.1c14.3-1.4,26.1-14.6,25-28.9c-0.6-7.4-2-14.8-10.1-18.3c-1.9-0.6-0.8-3.9-3.4-3.9
	c-4.6-3.8-9.9-4.6-15.6-3.8c-1.2,0-2.5,0-3.7-0.1c0-15.2,0.1-30.4,0.1-45.6c1.2-0.1,2.3-0.3,3.5-0.4c1.2,1.6,3,1.3,4.7,1.4
	c10.6,0.5,12.4,1.7,11.5,11.9c-0.7,7.5,4.2,8.3,8.7,10.8c4.9,2.7,6.2-1.7,8.8-3.7c1.2-0.9,2.1-2.1,3.1-3.2c3.3-3.6,6.7-3.3,9.9,0.1
	c4.9,5.3,10.5,9.9,14.7,15.9c0,0.5,0,0.9,0.1,1.4c-3.2,1.1-4.4,4.5-7.1,6.2c-6.5,4.2-3.7,9.1-1.8,14.4c1.8,5.1,5.8,3.2,9.1,3.5
	c1.3,0.1,2.6,0,3.8,0c5.1-0.2,7.5,2.3,7.5,7.3c0,5.1,0,10.3,0,15.4c-0.1,4.5-2.7,6.5-6.9,6.7c-1.9,0.1-3.9,0.5-5.7,0.1
	c-7-1.5-7.5,4-9.7,8.2c-2.4,4.5,1.2,6.1,3.3,8.5c1.1,1.3,2.4,2.4,3.6,3.7c3.3,3.3,3.5,6.6,0,10c-3.7,3.6-7.3,7.3-10.9,10.9
	c-3.4,3.4-6.6,3.3-9.9-0.3c-1.9-2.1-3.9-4-5.9-5.9c-1-1-1.8-2.2-3.8-1.9c-7.4,1.1-10.7,4.9-10.7,12.6c0,1.1,0,2.1,0,3.2
	c0.1,5.3-2.5,7.8-7.8,7.9C112,166.5,108.8,165.2,106.3,167.7z M106.7,54.4c23.6,2.7,39.2,15,39.9,39c0.8,25.7-15.8,38.1-41.7,41.4
	c11,3.9,27.3-3.2,35.7-14c11.6-15,11.9-34.5,1.5-50.3C135.7,60.5,117.2,50,106.7,54.4z"/>
<g id="XMLID_2_">
	<defs>
		<rect id="XMLID_1_" x="11.2" y="-6" width="87" height="202.9"/>
	</defs>
	<clipPath id="XMLID_33_">
		<use xlink:href="#XMLID_1_"  style="overflow:visible;"/>
	</clipPath>
	<path id="XMLID_194_" class="st1" d="M11.2,91.4C11,50.5,41,15.9,80.6,8.3c25.7-4.9,47.6,4.3,69.1,16c18.3,10,28.7,26.1,34.8,45.4
		c2.4,7.5,2.4,15,0.9,22.7c-2.7,13.7-5.1,27.4-8.2,41c-4.5,20.1-16.9,33.5-36.2,40.3c-23.6,8.3-47.9,11.8-71.6,2.1
		c-32.8-13.4-52.5-37.9-57.3-73.6C11.5,98,11.1,93.9,11.2,91.4z M73.6,112.3c3.5,0,7,0,10.5,0c9.2-0.1,13.9,6.1,11,15
		c-1.5,4.6-3.5,8.9-5.4,13.3c-0.9,2.2-1.5,4.3-0.7,6.7c2.6,7.7,4.2,15.7,5.6,23.7c0.3,1.9,1,3.2,3.5,3.3c11.7,0.5,23.2-0.5,34.5-4.1
		c4.4-1.4,4.5-3.4,2.4-6.8c-3.9-6.3-7-12.9-7.9-20.2c-1-8.4-5.3-12.6-13.4-14.7c-7.7-1.9-10.9-7.3-9.4-15.1c1.5-7.9,2-15.8,1.8-23.8
		c-0.1-3.3,1.1-4.6,4.3-4.3c7.3,0.5,14.6,0.9,21.9,1.3c5.8,0.3,11,2.2,15.4,6.1c1.2,1.1,2.7,1.8,4.6,1.5c7.8-1,15.5-1.9,23.3-2.7
		c2.6-0.3,4.1-1.1,3.6-3.9c-0.5-3-2.8-1.8-4.3-1.6c-5.7,0.8-10.9,0.7-15.3-3.8c-1.7-1.8-4-1.1-6.1-0.6c-2.9,0.7-5.6,0.3-6.8-2.6
		c-1.8-4.7-5.1-6.2-9.8-5.4c-3.8,0.6-4.9-1.4-5.1-4.8c-0.6-12.9,1-24.7,13.8-31.7c1-0.5,1.8-1.5,2.5-2.4c0.5-0.6,1.3-1.3,0.3-2
		c-4.5-3.1-8.9-6.3-14.2-8.2c-1.3-0.4-2.1,0.8-2.9,1.5c-9.5,8.4-20.5,10.8-32.5,7.2c-5.3-1.6-10.4-1.9-15.7-1.1
		c-4.5,0.7-9,0.8-13.1-1.7c-12.6-8-20-4.5-28,4.3c-4.8,5.2-4.6,5.7,1.5,9.3c8,4.8,16.9,7.5,25.6,10.8c3,1.1,4.6,2.9,5.3,5.9
		c1,4.1,1.3,8.2,0.9,12.4c-0.5,5.2-2.9,7.4-8,7.7c-3.5,0.2-7,0.1-10.5-0.1c-3.3-0.3-4.7,1.1-4.4,4.2c0.3,3.6-1.4,5.4-4.5,6.8
		c-8.2,3.8-8.1,3.9-3.9,12.1c0.6,1.2,1.3,2.3,1.8,3.5c1,2.7,3.1,3.6,5.8,4C58.9,112.3,66.2,112.6,73.6,112.3z M122.9,90.4
		c-3,0-5,0.2-7,0c-3.7-0.4-4.9,1-4.8,4.7c0.1,4.5-0.5,9-0.7,13.5c-0.5,13.3-0.5,13.7,12.6,17c5.3,1.3,7.4,4.2,8.4,9.1
		c1.9,9.3,4,18.5,8.2,27.1c1.7,3.4,3.5,4.3,7,2.7c8.5-4,14.3-10.8,18.9-18.6c7.7-12.9,9-27.6,11.8-42c1-5.2-1-5.7-5.2-5.4
		c-8,0.7-15.9,0.9-23.9,1.7c-3.1,0.3-5.8-0.3-7.6-2.6C135.8,91.2,129.3,89.6,122.9,90.4z M59.6,75.2c2.7-0.5,6,1.1,8.5-0.8
		c2.7-2,1.1-12.1-1.9-13.7c-9.4-5-18.9-9.8-28.2-14.9c-3-1.7-4.7-1.3-6.5,1.5c-10.2,16-15.9,33.2-13.3,52.4
		c1.3,9.8,2.2,10.9,11.6,12.4c3,0.5,7.3,2,9,0c1.8-2.1-1.5-5.3-2.6-8c-4.4-11-7.5-11.2,6.8-16.5c2.4-0.9,3.4-1.9,3.4-4.6
		c0-6.3,2.3-8.4,8.5-8.2C56.4,74.9,57.9,75.1,59.6,75.2z M83.2,138.9c2.1-4.6,4.4-8.9,5.9-13.4c1.7-5.4,0.3-6.9-5.3-7
		c-12-0.1-24.2,1.8-36.4-2.7c0.6,6.5,1.5,12.4,1.7,18.3c0.1,4.2,1.8,7.4,4.7,10c6.5,5.7,10.6,12.7,13.3,20.7
		c0.6,1.8,1.5,2.8,3.3,3.4c4.4,1.3,8.9,2.9,13.4,4c1.4,0.3,3.5,1.8,4.5,0.1c0.9-1.6-0.1-3.6-1-5.2c-0.7-1.1-1.8-1.9-2.9-2.7
		c-3.7-2.8-7.5-5.5-11.3-8.2c-1.6-1.1-2.7-2.5-1.4-4.1c1.2-1.3,2.2,0.5,3.2,1.2c3.8,2.4,6.8,5.9,11.3,8.1c-0.6-5.3-2.9-8.9-7-11.4
		c-2.8-1.7-5.5-3.8-8.2-5.7c-1.4-1-2.2-2.2-1.1-3.7c1.3-1.7,2.4-0.2,3.3,0.5c2.7,1.9,5.2,4,7.9,6.1c1.7-3.3,1.1-5.7-2-7.7
		c-2.5-1.6-4.8-3.6-7.1-5.5c-0.9-0.7-1.2-1.7-0.4-2.6c0.8-0.8,1.6,0,2.1,0.5C76.7,133.9,79.7,136.2,83.2,138.9z M138.3,58
		c0,2.2,0.1,4,0,5.8c-0.1,4,1.2,6.3,5.8,5.6c3.3-0.5,5.5,1.8,7.7,3.9c1.1,1,2.4,3,3.2,2.8c6.9-1.2,12,3.1,17.9,5.1
		c4.3,1.4,5.7,0.1,5.4-4.6c-0.2-2.3-0.5-4.6-1.1-6.9c-3.1-12-7-23.6-17.4-31.6c-3.4-2.6-6.5-4.9-9.5,0.6c-0.7,1.3-2.4,2.3-3.9,3
		C139.6,45.4,136.9,50.9,138.3,58z M128,19.8c-17-11-58.5-9.6-68.9,2.3c4.9,2.1,10.5,1.7,15.2,4.5c3.5,2,7.2,2.1,11.1,1.4
		c6.4-1.1,12.8-2.2,19.3-0.7C114,29.5,122.1,28.1,128,19.8z M56.9,162c-1.3-5.5-4-10.4-8.5-13.5c-6.1-4.3-6.9-10.1-7-16.5
		c0-2.3-0.2-4.7-0.2-7c0-2.2-1.1-4-3-4.8c-4.6-2.2-9.4-4.2-15.3-3.4C29.6,135.6,40.3,150.9,56.9,162z"/>
	<path id="XMLID_184_" class="st2" d="M73.6,112.3c-7.3,0.3-14.6,0-21.9-1c-2.7-0.4-4.7-1.3-5.8-4c-0.5-1.2-1.2-2.3-1.8-3.5
		c-4.2-8.2-4.3-8.3,3.9-12.1c3.1-1.4,4.8-3.3,4.5-6.8c-0.3-3.1,1.2-4.5,4.4-4.2c3.5,0.3,7,0.3,10.5,0.1c5.1-0.2,7.5-2.5,8-7.7
		c0.4-4.2,0.1-8.3-0.9-12.4c-0.7-3-2.3-4.8-5.3-5.9c-8.7-3.3-17.6-6-25.6-10.8c-6.1-3.6-6.2-4.1-1.5-9.3c8-8.8,15.4-12.3,28-4.3
		c4,2.5,8.6,2.4,13.1,1.7c5.3-0.8,10.4-0.5,15.7,1.1c12,3.7,23,1.2,32.5-7.2c0.9-0.8,1.7-2,2.9-1.5c5.2,1.8,9.7,5,14.2,8.2
		c1,0.7,0.3,1.5-0.3,2c-0.8,0.8-1.6,1.8-2.5,2.4c-12.8,7-14.4,18.9-13.8,31.7c0.2,3.4,1.3,5.5,5.1,4.8c4.7-0.8,7.9,0.7,9.8,5.4
		c1.1,2.9,3.9,3.3,6.8,2.6c2.1-0.5,4.4-1.2,6.1,0.6c4.3,4.5,9.6,4.7,15.3,3.8c1.5-0.2,3.8-1.4,4.3,1.6c0.5,2.9-1,3.7-3.6,3.9
		c-7.8,0.8-15.5,1.7-23.3,2.7c-1.8,0.2-3.3-0.4-4.6-1.5c-4.4-4-9.6-5.8-15.4-6.1c-7.3-0.4-14.6-0.8-21.9-1.3
		c-3.3-0.2-4.4,1.1-4.3,4.3c0.2,8-0.3,15.9-1.8,23.8c-1.5,7.8,1.7,13.1,9.4,15.1c8.1,2,12.4,6.3,13.4,14.7c0.9,7.3,4,14,7.9,20.2
		c2.1,3.3,1.9,5.4-2.4,6.8c-11.3,3.6-22.7,4.6-34.5,4.1c-2.5-0.1-3.1-1.4-3.5-3.3c-1.4-8-3-16-5.6-23.7c-0.8-2.4-0.3-4.5,0.7-6.7
		c1.9-4.4,3.9-8.8,5.4-13.3c2.9-8.9-1.8-15-11-15C80.6,112.3,77.1,112.3,73.6,112.3z M59.6,37.8c0.3-1.6,1.7-3.8-1.4-3.5
		c-2.7,0.2-4.1,2.7-5.5,4.7c-1.4,2-0.2,3.4,1,4.9c4.4,5.5,10.4,8.1,17.3,8.7c3.3,0.3,5.8,1.2,6,5c0.1,2.1,1.5,3.2,3.1,4.1
		c7.5,4.2,15.4,7.6,23.5,10.6c2.1,0.8,3.7,0.3,4.9-1.9c2.5-4.5,4.9-9,6.9-13.8c2.4-6,0-11.1-6.2-13.3c-14.5-5.1-29.3-5.6-44.1-1.5
		C61.1,43,59.6,41.6,59.6,37.8z M71,88.3c-1.6,0.8-2.4,1.5-1.4,3.1c2.7,4,5.3,8.1,7.9,12c0.5,0.8,1.2,1.9,2.3,1.1
		c1-0.7,0.6-1.8,0-2.7c-2.4-4-4.8-7.9-7.3-11.9C72.3,89.3,71.6,88.8,71,88.3z M102.4,149.1c0.5,0.4,1.2,1.4,1.7,1.3
		c3-0.4,4.9,1.5,7.2,2.8c1.1,0.6,2.5,0.9,3.8,0.9c1.3,0,3.1-0.5,3-2c-0.1-2.2-1.8-1.2-3-0.9c-2.2,0.4-3.8-0.5-5.5-1.8
		c-1.5-1.2-3.1-2.6-5.3-2.2C103.4,147.4,102.3,147.4,102.4,149.1z M137.6,35.4c-0.6-0.3-1.1-0.9-1.7-1c-3.2-0.5-6.1,0.5-8.9,1.9
		c-0.9,0.5-0.4,1.4-0.1,2.2c0.8,1.8,2.3,1.2,3.4,0.7C132.7,38.3,135.5,38.1,137.6,35.4z M102,82.7c-2.9-1.2-4.7,0.2-6.5,1.8
		c-1.6,1.4-1.1,2.5-0.2,3.8c1.3,1.8,2.3,0.4,3.1-0.5C99.8,86.4,101.3,85.1,102,82.7z M82.1,96.4c-0.3-3.5-1.9-6.3-3.6-9.1
		c-0.7-1.2-1.7-1.7-2.8-0.9c-1.2,0.8-0.1,1.7,0.3,2.5C77.7,91.7,79.4,94.5,82.1,96.4z M126.2,70.3c-1-2.8-2.4-5.4-4.3-7.7
		c-0.6-0.7-1.8,0-1.9,0.8c-0.5,2.9,1.7,4.7,3.2,6.8c0.3,0.4,0.6,0.8,1,1.1C125.3,72,126,71.7,126.2,70.3z M122.2,75.9
		c0-3.5-2.6-5.2-4.3-7.4c-0.6-0.8-1.4-1.6-2.4-0.7c-0.9,0.8-0.7,1.9,0,2.6C117.4,72.5,119,74.9,122.2,75.9z"/>
	<path id="XMLID_176_" class="st3" d="M122.9,90.4c6.4-0.8,12.8,0.8,17.7,7c1.8,2.4,4.5,2.9,7.6,2.6c8-0.7,15.9-1,23.9-1.7
		c4.2-0.4,6.2,0.1,5.2,5.4c-2.8,14.3-4.1,29.1-11.8,42c-4.7,7.8-10.5,14.6-18.9,18.6c-3.4,1.6-5.3,0.8-7-2.7
		c-4.3-8.6-6.3-17.8-8.2-27.1c-1-4.9-3.2-7.7-8.4-9.1c-13.1-3.3-13.2-3.7-12.6-17c0.2-4.5,0.8-9,0.7-13.5c-0.1-3.7,1.1-5.2,4.8-4.7
		C117.9,90.6,119.9,90.4,122.9,90.4z M159.8,138c0.4,0.3,0.9,0.6,1.2,0c0.1-0.1-0.4-0.5-0.5-0.7c-2.5-4-6.3-6.7-9.7-9.8
		c-0.9-0.8-1.9-1.7-3-0.6c-1.3,1.3,0.3,2.1,1.1,2.7C152.5,132.4,156.2,135.2,159.8,138z M166.8,124.8c-2.7-4.1-6.1-7.4-9.8-10.4
		c-0.6-0.5-1.2-1.3-2.1-0.4c-0.9,0.8-0.3,1.5,0.3,2.1C158.8,119.4,162.1,123,166.8,124.8z M163.1,132.5c-2.1-4.5-5.8-7.6-9.3-10.8
		c-0.6-0.6-1.4-1.7-2.4-0.7c-1,1,0,1.8,0.6,2.5C155.3,127,158.8,130.2,163.1,132.5z M170.7,116.6c-2.7-4.2-5.9-7.9-10.7-9.7
		C162.4,111.4,166.4,114.2,170.7,116.6z M154.3,153.3c-2-4.2-5.5-7-9.1-9.7c-0.6-0.4-1.3-0.2-1.7,0.4c-0.4,0.6-0.2,1.3,0.3,1.8
		C147,148.7,149.8,152.1,154.3,153.3z M156.6,147.2c0.3-0.3,0.6-0.7,0.9-1c-2.3-3.4-5.5-5.9-8.7-8.4c-0.7-0.6-1.8-1.4-2.5-0.2
		c-0.7,1.1,0.5,1.8,1.2,2.4C150.5,142.5,153.5,144.8,156.6,147.2z"/>
	<path id="XMLID_173_" class="st3" d="M59.6,75.2c-1.7-0.1-3.2-0.3-4.7-0.4c-6.2-0.2-8.5,1.9-8.5,8.2c0,2.7-1,3.7-3.4,4.6
		c-14.3,5.3-11.1,5.5-6.8,16.5c1.1,2.7,4.4,5.9,2.6,8c-1.8,2-6,0.5-9,0c-9.4-1.5-10.3-2.6-11.6-12.4c-2.6-19.3,3.2-36.4,13.3-52.4
		c1.8-2.8,3.5-3.2,6.5-1.5c9.3,5.2,18.8,10,28.2,14.9c3.1,1.6,4.7,11.7,1.9,13.7C65.6,76.3,62.3,74.8,59.6,75.2z M29.6,70.6
		c0.6,0,1.3-0.7,1.5-2c0.7-3.6,2.6-6.7,4-10c0.5-1.2,1.9-2.6-0.2-3.8c-1.9-1-3.2,0.1-4.1,1.6c-2.3,3.7-3.2,7.9-4.4,12
		C25.9,70.4,27.3,70.5,29.6,70.6z"/>
	<path id="XMLID_170_" class="st3" d="M83.2,138.9c-3.5-2.7-6.5-5-9.5-7.3c-0.6-0.4-1.4-1.3-2.1-0.5c-0.8,0.9-0.5,1.9,0.4,2.6
		c2.3,1.9,4.6,3.9,7.1,5.5c3.1,2,3.7,4.4,2,7.7c-2.7-2.1-5.3-4.1-7.9-6.1c-1-0.7-2.1-2.2-3.3-0.5c-1.1,1.6-0.3,2.8,1.1,3.7
		c2.7,1.9,5.3,4,8.2,5.7c4.1,2.5,6.4,6.1,7,11.4c-4.5-2.2-7.5-5.7-11.3-8.1c-1-0.6-2-2.5-3.2-1.2c-1.3,1.5-0.2,3,1.4,4.1
		c3.8,2.7,7.6,5.4,11.3,8.2c1.1,0.8,2.2,1.6,2.9,2.7c1,1.5,1.9,3.6,1,5.2c-1,1.7-3.1,0.3-4.5-0.1c-4.5-1.1-8.9-2.6-13.4-4
		c-1.7-0.5-2.6-1.6-3.3-3.4c-2.7-8-6.9-15.1-13.3-20.7c-2.9-2.6-4.6-5.8-4.7-10c-0.1-5.9-1.1-11.8-1.7-18.3
		c12.2,4.5,24.4,2.6,36.4,2.7c5.6,0.1,7,1.6,5.3,7C87.6,130.1,85.2,134.3,83.2,138.9z M84.1,131.1c0.6-4.1-3.2-5-5-7.3
		c-0.5-0.6-1.4-1-2.2-0.3c-1.1,0.9-0.5,1.8,0.2,2.5C79.1,127.9,81,130.1,84.1,131.1z"/>
	<path id="XMLID_165_" class="st3" d="M138.3,58c-1.4-7.1,1.3-12.6,8-16.2c1.4-0.8,3.1-1.7,3.9-3c3-5.5,6.1-3.2,9.5-0.6
		c10.4,8,14.3,19.6,17.4,31.6c0.6,2.2,1,4.6,1.1,6.9c0.3,4.7-1.1,6-5.4,4.6c-5.9-2-11-6.3-17.9-5.1c-0.9,0.2-2.2-1.8-3.2-2.8
		c-2.2-2.1-4.4-4.4-7.7-3.9c-4.6,0.6-5.9-1.6-5.8-5.6C138.4,62,138.3,60.2,138.3,58z M174.3,76c-4.2-4.6-9.6-6.9-14.9-9.4
		c-0.7-0.3-1.6-0.8-2.1,0.3c-0.4,1-0.2,2,0.8,2.5C163.3,72.1,168.4,75,174.3,76z M173.1,68.8c-3.3-4.6-8.3-7-13.1-9.4
		c-0.9-0.4-1.5,0.2-1.8,1.2c-0.3,1.2,0.5,1.8,1.4,2.3C163.8,65.4,168.1,67.8,173.1,68.8z M167.7,56.7c0.2-0.4,0.5-0.9,0.7-1.3
		c-1.7-2.4-4.5-3.4-7.2-4.4c-0.8-0.3-1.6-0.5-2,0.6c-0.3,1,0.1,1.6,0.9,2C162.7,54.7,165.2,55.7,167.7,56.7z"/>
	<path id="XMLID_164_" class="st3" d="M128,19.8c-5.9,8.3-13.9,9.7-23.2,7.5c-6.5-1.5-12.9-0.4-19.3,0.7c-3.9,0.6-7.6,0.6-11.1-1.4
		c-4.7-2.8-10.3-2.4-15.2-4.5C69.5,10.1,110.9,8.8,128,19.8z"/>
	<path id="XMLID_163_" class="st2" d="M56.9,162c-16.6-11.1-27.4-26.4-33.8-45.3c5.9-0.8,10.6,1.2,15.3,3.4c1.9,0.9,3,2.6,3,4.8
		c0,2.3,0.2,4.7,0.2,7c0,6.5,0.9,12.3,7,16.5C52.9,151.6,55.6,156.5,56.9,162z"/>
	<path id="XMLID_160_" class="st1" d="M59.6,37.8c0,3.8,1.4,5.2,5.5,4c14.8-4.1,29.5-3.6,44.1,1.5c6.2,2.2,8.6,7.3,6.2,13.3
		c-1.9,4.8-4.3,9.3-6.9,13.8c-1.2,2.2-2.8,2.7-4.9,1.9c-8.1-3-16-6.4-23.5-10.6c-1.6-0.9-3-2-3.1-4.1c-0.2-3.8-2.7-4.7-6-5
		c-6.9-0.6-12.8-3.2-17.3-8.7c-1.2-1.4-2.3-2.9-1-4.9c1.4-2,2.8-4.5,5.5-4.7C61.3,34.1,59.9,36.2,59.6,37.8z M66.9,45.1
		c3.8,2.7,7.8,3.1,11.4,4.4c1.8,0.7,4.5,0.8,4.9,2.9c1.3,6.6,6.9,7.8,11.8,9.9c10.2,4.3,10.6,3.9,14.2-6.7c1.5-4.5,0.4-6.9-4-8.2
		C92.8,43.7,80.4,42.3,66.9,45.1z"/>
	<path id="XMLID_159_" class="st1" d="M71,88.3c0.6,0.5,1.3,1,1.7,1.6c2.5,3.9,4.9,7.9,7.3,11.9c0.5,0.9,0.9,2,0,2.7
		c-1.1,0.8-1.8-0.3-2.3-1.1c-2.7-4-5.3-8-7.9-12C68.6,89.8,69.4,89.1,71,88.3z"/>
	<path id="XMLID_158_" class="st1" d="M102.4,149.1c-0.1-1.7,1-1.7,2-1.9c2.2-0.4,3.8,1,5.3,2.2c1.6,1.3,3.3,2.2,5.5,1.8
		c1.2-0.2,2.9-1.2,3,0.9c0,1.5-1.7,2-3,2c-1.3,0-2.7-0.3-3.8-0.9c-2.3-1.3-4.2-3.3-7.2-2.8C103.6,150.5,102.9,149.5,102.4,149.1z"/>
	<path id="XMLID_157_" class="st1" d="M137.6,35.4c-2.2,2.7-5,2.8-7.3,3.9c-1.1,0.5-2.6,1-3.4-0.7c-0.3-0.7-0.8-1.7,0.1-2.2
		c2.8-1.4,5.7-2.4,8.9-1.9C136.5,34.5,137,35.1,137.6,35.4z"/>
	<path id="XMLID_156_" class="st1" d="M97.8,79.9c1.5,0.4,3.3,10.8-0.1,9.4c-1.2-0.5-2,1.7-3.3-0.1c-1-1.3-0.5-3.3,1-4.7
		C97.3,82.9,97.6,82.9,97.8,79.9z"/>
	<path id="XMLID_155_" class="st1" d="M82.1,96.4c-2.8-1.9-4.5-4.6-6.1-7.4c-0.4-0.8-1.5-1.6-0.3-2.5c1.1-0.8,2.1-0.3,2.8,0.9
		C80.3,90.1,81.9,92.9,82.1,96.4z"/>
	<path id="XMLID_154_" class="st1" d="M126.2,70.3c-0.2,1.4-0.9,1.7-2,0.9c-0.4-0.3-0.7-0.7-1-1.1c-1.5-2-3.7-3.8-3.2-6.8
		c0.1-0.8,1.3-1.5,1.9-0.8C123.8,64.9,125.3,67.5,126.2,70.3z"/>
	<path id="XMLID_153_" class="st1" d="M122.2,75.9c-3.2-1-4.7-3.4-6.6-5.4c-0.7-0.8-0.9-1.8,0-2.6c1-1,1.8-0.1,2.4,0.7
		C119.6,70.7,122.2,72.4,122.2,75.9z"/>
	<path id="XMLID_152_" class="st1" d="M166.8,124.8c-4.7-1.8-8-5.4-11.6-8.8c-0.6-0.6-1.2-1.2-0.3-2.1c0.9-0.9,1.5-0.1,2.1,0.4
		C160.8,117.4,164.2,120.7,166.8,124.8z"/>
	<path id="XMLID_151_" class="st1" d="M163.1,132.5c-4.3-2.3-7.8-5.5-11.1-8.9c-0.7-0.7-1.6-1.4-0.6-2.5c1.1-1.1,1.8,0.1,2.4,0.7
		C157.3,125,161,128,163.1,132.5z"/>
	<path id="XMLID_150_" class="st1" d="M159.8,138c-3.6-2.8-7.3-5.6-10.9-8.5c-0.8-0.6-2.4-1.3-1.1-2.7c1-1.1,2.1-0.2,3,0.6
		c3.4,3.1,7.2,5.8,9.7,9.8C160.2,137.5,160,137.7,159.8,138z"/>
	<path id="XMLID_149_" class="st1" d="M170.7,116.6c-4.4-2.4-8.3-5.1-10.7-9.7C164.9,108.7,168,112.4,170.7,116.6z"/>
	<path id="XMLID_148_" class="st1" d="M154.3,153.3c-4.5-1.2-7.3-4.7-10.4-7.6c-0.5-0.5-0.7-1.2-0.3-1.8c0.4-0.6,1.2-0.8,1.7-0.4
		C148.8,146.3,152.3,149.1,154.3,153.3z"/>
	<path id="XMLID_147_" class="st1" d="M156.6,147.2c-3.1-2.4-6.2-4.7-9.2-7.2c-0.7-0.6-1.8-1.3-1.2-2.4c0.7-1.2,1.8-0.4,2.5,0.2
		c3.2,2.5,6.4,5,8.7,8.4C157.2,146.5,156.9,146.9,156.6,147.2z"/>
	<path id="XMLID_146_" class="st1" d="M160.5,137.2c0.2,0.2,0.6,0.6,0.5,0.7c-0.4,0.6-0.8,0.3-1.2,0
		C160,137.7,160.2,137.5,160.5,137.2z"/>
	<path id="XMLID_145_" class="st1" d="M29.6,70.6c-2.3,0-3.6-0.2-3.1-2.2c1.2-4.1,2.1-8.3,4.4-12c0.9-1.5,2.2-2.6,4.1-1.6
		c2.1,1.1,0.7,2.5,0.2,3.8c-1.4,3.3-3.4,6.4-4,10C30.9,69.9,30.1,70.6,29.6,70.6z"/>
	<path id="XMLID_144_" class="st1" d="M84.1,131.1c-3.1-0.9-5-3.1-7-5.1c-0.7-0.7-1.3-1.6-0.2-2.5c0.8-0.7,1.7-0.3,2.2,0.3
		C80.8,126,84.7,127,84.1,131.1z"/>
	<path id="XMLID_143_" class="st1" d="M174.3,76c-5.9-1-10.9-3.9-16.1-6.6c-1-0.5-1.3-1.5-0.8-2.5c0.5-1.1,1.4-0.6,2.1-0.3
		C164.7,69.1,170.1,71.4,174.3,76z"/>
	<path id="XMLID_142_" class="st1" d="M173.1,68.8c-5-1.1-9.2-3.5-13.5-5.9c-0.9-0.5-1.7-1.1-1.4-2.3c0.2-1,0.9-1.6,1.8-1.2
		C164.8,61.9,169.8,64.2,173.1,68.8z"/>
	<path id="XMLID_141_" class="st1" d="M167.7,56.7c-2.5-1-5-2-7.5-3.1c-0.9-0.4-1.3-1-0.9-2c0.4-1.1,1.2-0.9,2-0.6
		c2.8,0.9,5.5,1.9,7.2,4.4C168.2,55.8,168,56.3,167.7,56.7z"/>
	<path id="XMLID_140_" class="st3" d="M66.9,45.1c13.5-2.8,25.9-1.4,38.2,2.2c4.4,1.3,5.5,3.8,4,8.2c-3.6,10.7-4,11.1-14.2,6.7
		c-4.9-2.1-10.5-3.2-11.8-9.9c-0.4-2.2-3.1-2.3-4.9-2.9C74.7,48.2,70.7,47.8,66.9,45.1z"/>
</g>
<path id="XMLID_93_" class="st4" d="M102.9,54.3c-4.1-0.3-3-2.7-1.2-2.8c16.8-0.6,34.9,10.6,40.5,19.1c10.4,15.8,10.1,35.3-1.5,50.3
	c-6.3,8.1-25.9,18-36.6,18.7c-3.7,0.2-1.9-2.6-1.9-3.6c34.3-7.7,42-19.1,44.5-42.5C145.9,69.4,129.1,56.4,102.9,54.3z"/>
<path id="XMLID_4_" class="st4" d="M135.4,93.6c-0.6-7.4-2.4-16.8-14.2-23.7c-6.1-3.1-11.2-3.6-18.6-3.3c0,0-6.4,3,4.6,2.8
	c9.3-0.1,16.7,5.1,21,10.1c10.5,12.3,3.1,35.8-17,39.8c-1.8,0.4-10.4,0.4-9.5,2.4c1.3,0.8,7,0.9,8.6,0.8
	C124.7,121,136.5,107.8,135.4,93.6z"/>
<path id="XMLID_5_" class="st4" d="M182,86.6c-0.2-6.2-3-8.9-9.1-9.1c-2.1-0.1-4.3-0.3-6.4,0c-4.6,0.8-4.8-2.9-6.4-5.5
	c-1.7-2.9-0.7-4.5,1.4-6.5c1.3-1.3,2.8-2.4,4-3.7c5.7-4.9,5.7-9.8,0-14.5v0c-0.2-0.2-0.3-0.3-0.5-0.5c-2.6-2.2-4.9-4.8-7.3-7.2
	c-8.4-8.4-11-8.4-19.3,0c-2.5,2.5-4.3,4.3-8.6,2.5c-4.2-1.8-4.4-4.2-4.4-7.8c0-12.8-11.2-17.5-23.7-13.1c1.2,1.6-2.1,2.4-0.4,2.1
	c14.9-2.9,22.2,1.3,21.2,11.6c-0.7,7.5,4.2,8.3,8.7,10.8c4.9,2.7,6.2-1.7,8.8-3.7c1.2-0.9,2.1-2.1,3.1-3.2c3.3-3.6,6.7-3.3,9.9,0.1
	c4.1,4.4,8.7,8.4,12.5,13c1.9,2.1,1.7,3.9,0,5.6c-1.7,1.5-2.9,3.6-4.8,4.8c-6.5,4.2-3.7,9.1-1.8,14.4c1.8,5.1,5.8,3.2,9.1,3.5
	c1.3,0.1,2.6,0,3.8,0c5.1-0.2,7.5,2.3,7.5,7.3c0,5.1,0,10.3,0,15.4c-0.1,4.5-2.7,6.5-6.9,6.7c-1.9,0.1-3.9,0.5-5.7,0.1
	c-7-1.5-7.5,4-9.7,8.2c-2.4,4.5,1.2,6.1,3.3,8.5c1.1,1.3,2.4,2.4,3.6,3.7c3.3,3.3,3.5,6.6,0,10c-3.7,3.6-7.3,7.3-10.9,10.9
	c-3.4,3.4-6.6,3.3-9.9-0.3c-1.9-2.1-3.9-4-5.9-5.9c-1-1-1.8-2.2-3.8-1.9c-7.4,1.1-10.7,4.9-10.7,12.6c0,1.1,0,2.1,0,3.2
	c0.1,5.3-2.5,7.8-7.8,7.9c-2.9,0.1-6.8,0.1-12-0.7c0,0-3.3,4.4,0.7,3.6c4.6-1,22.2,5.9,21.7-13.3c-0.1-5,1-7.6,6.1-9.2
	c5.3-1.7,6.2,2.8,8.5,4.9c6.7,6,9.9,6.2,16.3-0.1c3.4-3.3,6.7-6.6,10-10c4.1-4.3,4-8.7,0-13.1c-1.4-1.6-2.9-3.2-4.5-4.5
	c-2.2-1.9-2.3-3.5-1.6-6.5c1.6-6.6,6.3-5,10.5-5.1c8.7-0.2,11.5-2.9,11.5-11.6C182,96,182.1,91.3,182,86.6z"/>
<path id="XMLID_9_" class="st5" d="M96.5,6.9c0,1.8-1.7,5.4,0.1,5.4c1.6,0,1.4,3.1,1.4,8.7c0.2,25.4-0.7,98-0.3,138.5
	c0,4.4,1.6,14.8-0.4,15c-2.5,0.2,0.8,4.9,0.9,7.1c0,0,6.9,0.3,6.9-2.1c0-17,0-34.2-0.6-51.2c-1-28.3-0.4-56.7-0.6-85.1
	c-0.1-11.3-0.4-22.7-0.3-34C103.6,6.5,96.5,6.9,96.5,6.9z"/>
</svg>
